<svg width="50" height="50" viewBox="0 0 50 50" fill="none" xmlns="http://www.w3.org/2000/svg">
<g clip-path="url(#clip0_15_69)">
<path d="M25 50C38.8071 50 50 38.8071 50 25C50 11.1929 38.8071 0 25 0C11.1929 0 0 11.1929 0 25C0 38.8071 11.1929 50 25 50Z" fill="#017DF3"/>
<path d="M24.8881 21.2121H23.02C22.9096 20.6748 22.7162 20.2027 22.44 19.7959C22.1688 19.3892 21.8373 19.0477 21.4456 18.7715C21.059 18.4903 20.6296 18.2794 20.1576 18.1388C19.6855 17.9982 19.1934 17.9279 18.6811 17.9279C17.7471 17.9279 16.9009 18.1639 16.1426 18.6359C15.3894 19.108 14.7892 19.8035 14.3423 20.7224C13.9004 21.6415 13.6794 22.7689 13.6794 24.1047C13.6794 25.4404 13.9004 26.5679 14.3423 27.4868C14.7892 28.4059 15.3894 29.1014 16.1426 29.5735C16.9009 30.0454 17.7471 30.2815 18.6811 30.2815C19.1934 30.2815 19.6855 30.2112 20.1576 30.0706C20.6296 29.93 21.059 29.7215 21.4456 29.4453C21.8373 29.1641 22.1688 28.8201 22.44 28.4133C22.7162 28.0017 22.9096 27.5295 23.02 26.9973H24.8881C24.7474 27.7856 24.4914 28.4912 24.1197 29.1139C23.7482 29.7367 23.2861 30.2665 22.7338 30.7033C22.1814 31.1351 21.5612 31.4641 20.8732 31.6901C20.1902 31.9161 19.4596 32.0291 18.6811 32.0291C17.3655 32.0291 16.1953 31.7077 15.1709 31.0648C14.1465 30.4221 13.3405 29.5082 12.7529 28.323C12.1654 27.1379 11.8716 25.7318 11.8716 24.1047C11.8716 22.4776 12.1654 21.0715 12.7529 19.8864C13.3405 18.7012 14.1465 17.7873 15.1709 17.1444C16.1953 16.5017 17.3655 16.1803 18.6811 16.1803C19.4596 16.1803 20.1902 16.2933 20.8732 16.5192C21.5612 16.7451 22.1814 17.0767 22.7338 17.5135C23.2861 17.9454 23.7482 18.4727 24.1197 19.0954C24.4914 19.7132 24.7474 20.4186 24.8881 21.2121ZM33.8124 16.3912H35.6806V27.4191C35.6806 28.4033 35.4999 29.2395 35.1382 29.9274C34.7767 30.6154 34.267 31.1377 33.6091 31.4942C32.9512 31.8508 32.1753 32.0291 31.2815 32.0291C30.4379 32.0291 29.6871 31.8759 29.0293 31.5695C28.3714 31.2582 27.8541 30.8164 27.4774 30.2438C27.1008 29.6714 26.9126 28.9909 26.9126 28.2024H28.7505C28.7505 28.6394 28.8585 29.0211 29.0744 29.3474C29.2953 29.6688 29.5967 29.92 29.9784 30.1008C30.36 30.2815 30.7944 30.372 31.2815 30.372C31.8188 30.372 32.2758 30.2589 32.6524 30.0329C33.0291 29.807 33.3153 29.4755 33.5112 29.0386C33.712 28.5967 33.8124 28.0568 33.8124 27.4191V16.3912Z" fill="white"/>
</g>
<defs>
<clipPath id="clip0_15_69">
<rect width="50" height="50" fill="white"/>
</clipPath>
</defs>
</svg>
